<?xml version="1.0" standalone="no"?>
<!DOCTYPE svg PUBLIC "-//W3C//DTD SVG 20010904//EN"
 "http://www.w3.org/TR/2001/REC-SVG-20010904/DTD/svg10.dtd">
<svg version="1.0" xmlns="http://www.w3.org/2000/svg"
 width="300.000000pt" height="159.000000pt" viewBox="0 0 300.000000 159.000000"
 preserveAspectRatio="xMidYMid meet">

<g transform="translate(0.000000,159.000000) scale(0.100000,-0.100000)"
fill="#000000" stroke="none">
<path d="M105 1559 c-43 -25 -75 -64 -91 -111 -14 -44 -14 -52 0 -96 36 -109
146 -153 252 -101 59 28 89 78 88 149 0 106 -55 163 -164 168 -37 1 -74 -3
-85 -9z m158 -79 c50 -57 29 -158 -40 -186 -46 -20 -86 -10 -117 27 -35 41
-42 88 -21 133 35 73 124 86 178 26z"/>
<path d="M420 1400 l0 -170 30 0 c29 0 29 1 32 63 l3 62 72 5 c61 4 77 9 99
31 48 49 30 146 -32 169 -14 6 -66 10 -115 10 l-89 0 0 -170z m188 98 c18 -18
15 -53 -7 -72 -14 -12 -32 -16 -67 -14 l-49 3 -3 48 -3 47 58 0 c33 0 64 -5
71 -12z"/>
<path d="M740 1400 l0 -170 120 0 120 0 0 30 0 30 -85 0 -85 0 0 45 0 45 80 0
80 0 0 28 0 27 -80 -3 -80 -4 0 41 0 41 85 0 85 0 0 30 0 30 -120 0 -120 0 0
-170z"/>
<path d="M1042 1403 l3 -168 30 0 30 0 5 110 5 110 83 -112 c73 -99 87 -113
113 -113 l29 0 0 170 0 170 -30 0 -30 0 0 -106 c0 -58 -4 -104 -9 -102 -5 2
-43 49 -85 106 -71 96 -78 102 -111 102 l-35 0 2 -167z"/>
<path d="M1420 1400 l0 -170 30 0 30 0 0 120 c0 66 4 120 8 120 5 0 29 -53 54
-117 28 -73 50 -118 59 -118 8 0 31 46 59 117 25 65 48 118 53 118 4 0 7 -54
7 -120 l0 -120 30 0 30 0 0 171 0 170 -47 -3 -47 -3 -39 -102 c-22 -57 -43
-103 -46 -103 -4 0 -24 47 -46 105 l-40 105 -47 0 -48 0 0 -170z"/>
<path d="M1860 1453 c0 -137 14 -177 70 -205 43 -22 121 -23 160 -3 62 32 70
55 70 196 l0 129 -29 0 -29 0 -4 -120 c-3 -108 -5 -122 -26 -142 -15 -16 -34
-23 -62 -23 -66 0 -74 17 -80 158 l-5 122 -32 3 -33 3 0 -118z"/>
<path d="M2273 1550 c-34 -21 -47 -49 -41 -96 4 -37 48 -66 122 -83 63 -14 84
-36 61 -67 -19 -27 -96 -24 -135 4 l-28 21 -16 -24 c-9 -13 -16 -27 -16 -30 0
-15 90 -45 133 -45 86 0 137 39 137 106 0 47 -28 72 -104 95 -90 26 -107 41
-81 69 23 25 60 26 108 1 l36 -19 16 25 c9 14 15 26 13 28 -44 38 -154 46
-205 15z"/>
<path d="M2550 1400 l0 -170 30 0 30 0 0 170 0 170 -30 0 -30 0 0 -170z"/>
<path d="M2760 1549 c-56 -33 -74 -65 -78 -139 -3 -55 0 -70 20 -99 32 -48 68
-72 116 -78 61 -8 107 4 143 38 l33 31 -28 15 c-26 13 -30 13 -49 -5 -63 -59
-162 -16 -174 76 -9 67 43 132 107 132 26 0 77 -25 82 -41 4 -11 58 8 58 21 0
9 -41 45 -67 59 -36 18 -124 13 -163 -10z"/>
</g>
</svg>
